<?xml version="1.0" encoding="UTF-8" standalone="no"?>
<!-- Created with Inkscape (http://www.inkscape.org/) -->

<svg
   version="1.1"
   id="svg1"
   width="1024"
   height="1024"
   viewBox="0 0 1024 1024"
   sodipodi:docname="infrastack.svg"
   inkscape:version="1.4.2 (f4327f4, 2025-05-13)"
   xmlns:inkscape="http://www.inkscape.org/namespaces/inkscape"
   xmlns:sodipodi="http://sodipodi.sourceforge.net/DTD/sodipodi-0.dtd"
   xmlns="http://www.w3.org/2000/svg"
   xmlns:svg="http://www.w3.org/2000/svg">
  <defs
     id="defs1" />
  <sodipodi:namedview
     id="namedview1"
     pagecolor="#ffffff"
     bordercolor="#000000"
     borderopacity="0.25"
     inkscape:showpageshadow="2"
     inkscape:pageopacity="0.0"
     inkscape:pagecheckerboard="0"
     inkscape:deskcolor="#d1d1d1"
     showgrid="false"
     inkscape:zoom="0.59040654"
     inkscape:cx="378.55272"
     inkscape:cy="344.67775"
     inkscape:window-width="1858"
     inkscape:window-height="1057"
     inkscape:window-x="-8"
     inkscape:window-y="-8"
     inkscape:window-maximized="1"
     inkscape:current-layer="g1" />
  <g
     inkscape:groupmode="layer"
     inkscape:label="Image"
     id="g1">
    <path
       style="fill:#000000;stroke-width:2.14477"
       d="M 514.26234,585.58894 V 147.61189 l -7.29222,-7.29221 -7.29222,-7.29222 h -5.72933 -5.72932 l -50.78537,30.29065 c -27.93196,16.65985 -51.01691,30.4839 -51.29994,30.72008 -0.28302,0.2362 -0.56118,169.50069 -0.61812,376.1433 l -0.10359,375.71383 h -2.22921 c -1.22606,0 -12.05558,-5.74354 -24.06559,-12.76342 -12.01003,-7.01987 -23.99948,-14.77864 -26.64328,-17.24172 l -4.80688,-4.47828 v -260.64702 -260.647 l -2.22022,-4.14855 -2.22024,-4.14854 h -5.08017 -5.08019 l -27.5521,16.40337 c -15.15366,9.02185 -37.44485,22.61167 -49.53599,30.19959 l -21.9839,13.79621 v 201.43558 c 0,110.78958 -0.50323,201.43559 -1.11828,201.43559 -0.61506,0 -12.4381,-6.62224 -26.27343,-14.71608 -13.83534,-8.09383 -35.2892,-20.80665 -47.67525,-28.25068 -12.38604,-7.44405 -31.68897,-19.04442 -42.895395,-25.77861 l -20.375316,-12.24398 -6.43431,-9.01925 -6.43431,-9.01925 -0.564654,-230.40821 -0.564675,-230.40822 4.109294,-8.01324 c 2.260094,-4.40729 6.374793,-10.06494 9.143734,-12.57254 2.768962,-2.5076 14.203354,-10.11924 25.409772,-16.91475 11.20643,-6.79551 30.99193,-18.62076 43.96779,-26.2783 12.97586,-7.65756 35.17423,-20.70857 49.32972,-29.00229 14.15548,-8.2937 29.11525,-17.21811 33.24393,-19.83205 4.12869,-2.61391 21.01875,-12.70296 37.53347,-22.42009 16.51474,-9.71712 60.91148,-36.04499 98.65943,-58.506374 37.74795,-22.461383 76.27525,-45.599614 85.6162,-51.418289 9.34096,-5.818676 24.85338,-14.83456 34.47205,-20.035263 l 17.48848,-9.455862 9.80619,-1.3440845 9.80616,-1.3440845 11.48581,5.273668 c 6.31718,2.900501 31.2713,17.11786 55.45358,31.594136 24.18229,14.476255 53.13668,31.701032 64.34311,38.277283 11.20642,6.576251 29.54421,17.41929 40.75063,24.09564 11.20642,6.67632 39.19567,23.22582 62.19833,36.77665 23.00266,13.55081 55.81764,32.88773 72.92219,42.97094 17.10454,10.08321 34.47717,20.24414 38.60586,22.57986 4.12868,2.3357 21.01874,12.20807 37.53347,21.93857 16.51473,9.7305 35.28257,21.20691 41.70628,25.50314 l 11.6795,7.8113 4.94247,9.4526 4.94247,9.45263 v 229.22193 229.22197 l -2.89767,6.93511 c -1.59373,3.81432 -6.37494,9.98822 -10.62493,13.71975 -4.24999,3.73154 -14.76908,10.8538 -23.37577,15.82727 -8.60668,4.97346 -33.02113,19.39024 -54.25436,32.03733 -21.23322,12.64706 -52.30755,31.32739 -69.05409,41.51181 -16.74651,10.18444 -31.93498,18.51715 -33.75216,18.51715 h -3.30391 V 629.79006 c 0,-132.57107 -0.51661,-242.35649 -1.14803,-243.9676 -0.63142,-1.61111 -8.60647,-7.20332 -17.72234,-12.42714 -9.11586,-5.2238 -30.56892,-17.85841 -47.67346,-28.07687 -17.10454,-10.21847 -37.52944,-22.11065 -45.38865,-26.42706 -7.85924,-4.31641 -14.85655,-7.84801 -15.54959,-7.84801 -0.69306,0 -1.26009,143.28621 -1.26009,318.41379 v 318.41381 l -2.68097,2.31699 c -1.47452,1.27436 -28.62622,17.79915 -60.33712,36.72181 -31.7109,18.92262 -58.97629,34.91122 -60.58975,35.53042 l -2.9336,1.1258 z"
       id="path1" />
  </g>
</svg>
